# xmcd
#
# Track frame offsets:
#	150
#	19196
#	38187
#	64312
#	79145
#	102044
#	125719
#	141718
#	157665
#	182476
#
# Disc length: 2742 seconds
#
# Revision: 1
# Processed by: cddbd v1.5.2PL0 Copyright (c) Steve Scherf et al.
# Submitted via: audiograbber 1.83.01
#
DISCID=840ab40a
DTITLE=Meena Cryle And The Fillmore Blues Band - Singing Songs For Extasy
DYEAR=2006
DGENRE=
TTITLE0=Singing Songs
TTITLE1=Machubichu Man
TTITLE2=I'm Still Alive
TTITLE3=Tina Nina Nu
TTITLE4=If You Got Worries
TTITLE5=Damn Your Eyes
TTITLE6=Boppin
TTITLE7=Get It On By
TTITLE8=This Song Is For You
TTITLE9=You Can Have My Husband
EXTD=
EXTT0=
EXTT1=
EXTT2=
EXTT3=
EXTT4=
EXTT5=
EXTT6=
EXTT7=
EXTT8=
EXTT9=
PLAYORDER=
